<svg height="2446" width="720" xmlns="http://www.w3.org/2000/svg">
<rect height="2446" fill="#555" width="720"></rect>
<text fill="#7f7" font-family="Courier New" font-size="12" xml:space="preserve">
<tspan x="10" y="26">2016-10-13 18:34:18 +0800</tspan>
<tspan x="10" y="42">rename crudRemoveMany</tspan>
<tspan x="10" y="58"></tspan>
<tspan x="10" y="74">2016-10-13 18:28:11 +0800</tspan>
<tspan x="10" y="90">rename crudFindOne</tspan>
<tspan x="10" y="106"></tspan>
<tspan x="10" y="122">2016-10-13 18:18:59 +0800</tspan>
<tspan x="10" y="138">rename crudGetAllSync</tspan>
<tspan x="10" y="154"></tspan>
<tspan x="10" y="170">2016-10-13 18:12:08 +0800</tspan>
<tspan x="10" y="186">rename _DBTable</tspan>
<tspan x="10" y="202"></tspan>
<tspan x="10" y="218">2016-10-13 18:10:30 +0800</tspan>
<tspan x="10" y="234">rename crudInsert</tspan>
<tspan x="10" y="250"></tspan>
<tspan x="10" y="266">2016-10-13 18:04:53 +0800</tspan>
<tspan x="10" y="282">update timerSave</tspan>
<tspan x="10" y="298"></tspan>
<tspan x="10" y="314">2016-10-13 17:51:38 +0800</tspan>
<tspan x="10" y="330">rename crudUpdate</tspan>
<tspan x="10" y="346"></tspan>
<tspan x="10" y="362">2016-10-13 17:48:48 +0800</tspan>
<tspan x="10" y="378">rename crudInsert</tspan>
<tspan x="10" y="394"></tspan>
<tspan x="10" y="410">2016-10-13 17:42:57 +0800</tspan>
<tspan x="10" y="426">cull persistence</tspan>
<tspan x="10" y="442"></tspan>
<tspan x="10" y="458">2016-10-13 17:23:16 +0800</tspan>
<tspan x="10" y="474">cull persistence</tspan>
<tspan x="10" y="490"></tspan>
<tspan x="10" y="506">2016-10-13 16:47:45 +0800</tspan>
<tspan x="10" y="522">cull persistence</tspan>
<tspan x="10" y="538"></tspan>
<tspan x="10" y="554">2016-10-13 16:29:31 +0800</tspan>
<tspan x="10" y="570">fix index</tspan>
<tspan x="10" y="586"></tspan>
<tspan x="10" y="602">2016-10-13 16:01:18 +0800</tspan>
<tspan x="10" y="618">simplify table-drop</tspan>
<tspan x="10" y="634"></tspan>
<tspan x="10" y="650">2016-10-13 15:44:38 +0800</tspan>
<tspan x="10" y="666">cull persistCachedDatabase</tspan>
<tspan x="10" y="682"></tspan>
<tspan x="10" y="698">2016-10-13 15:37:50 +0800</tspan>
<tspan x="10" y="714">cull treatRawData</tspan>
<tspan x="10" y="730"></tspan>
<tspan x="10" y="746">2016-10-13 15:10:17 +0800</tspan>
<tspan x="10" y="762">methodize dbTableExport</tspan>
<tspan x="10" y="778"></tspan>
<tspan x="10" y="794">2016-10-13 12:48:16 +0800</tspan>
<tspan x="10" y="810">methodize dbTableDrop</tspan>
<tspan x="10" y="826"></tspan>
<tspan x="10" y="842">2016-10-13 12:43:49 +0800</tspan>
<tspan x="10" y="858">methodize dbTableDrop</tspan>
<tspan x="10" y="874"></tspan>
<tspan x="10" y="890">2016-10-13 12:40:47 +0800</tspan>
<tspan x="10" y="906">slushy drop</tspan>
<tspan x="10" y="922"></tspan>
<tspan x="10" y="938">2016-10-13 11:48:48 +0800</tspan>
<tspan x="10" y="954">cull self.isLoaded</tspan>
<tspan x="10" y="970"></tspan>
<tspan x="10" y="986">2016-10-13 11:38:02 +0800</tspan>
<tspan x="10" y="1002">remove table lock</tspan>
<tspan x="10" y="1018"></tspan>
<tspan x="10" y="1034">2016-10-13 09:29:08 +0800</tspan>
<tspan x="10" y="1050">allowing dropped tables to be re-used</tspan>
<tspan x="10" y="1066"></tspan>
<tspan x="10" y="1082">2016-10-13 09:20:14 +0800</tspan>
<tspan x="10" y="1098">move code from _Table to dbTableCreate</tspan>
<tspan x="10" y="1114"></tspan>
<tspan x="10" y="1130">2016-10-13 08:32:53 +0800</tspan>
<tspan x="10" y="1146">- add lock to dbReset</tspan>
<tspan x="10" y="1162"></tspan>
<tspan x="10" y="1178">2016-10-12 23:32:10 +0800</tspan>
<tspan x="10" y="1194">- add 'hide internal test' button to demo</tspan>
<tspan x="10" y="1210"></tspan>
<tspan x="10" y="1226">2016-10-12 22:54:29 +0800</tspan>
<tspan x="10" y="1242">- add lock to dbReset</tspan>
<tspan x="10" y="1258"></tspan>
<tspan x="10" y="1274">2016-10-12 22:38:36 +0800</tspan>
<tspan x="10" y="1290">- rename window.nedb to window.nedb_lite</tspan>
<tspan x="10" y="1306">- deprecate class constructor Nedb in favor of dbTableCreate</tspan>
<tspan x="10" y="1322"></tspan>
<tspan x="10" y="1338">2016-10-11 15:44:57 +0800</tspan>
<tspan x="10" y="1354">- insert will auto-create missing non-sparse unique-keys</tspan>
<tspan x="10" y="1370">- add isInteger parameter to indexes</tspan>
<tspan x="10" y="1386"></tspan>
<tspan x="10" y="1402">2016-10-10 23:06:21 +0800</tspan>
<tspan x="10" y="1418">- jslint entire code</tspan>
<tspan x="10" y="1434"></tspan>
<tspan x="10" y="1450">2016-10-10 02:48:19 +0800</tspan>
<tspan x="10" y="1466">- remove support for datetime (use ISO datetime string instead)</tspan>
<tspan x="10" y="1482"></tspan>
<tspan x="10" y="1498">2016-10-10 02:21:32 +0800</tspan>
<tspan x="10" y="1514">- row-update always returns updated row</tspan>
<tspan x="10" y="1530"></tspan>
<tspan x="10" y="1546">2016-10-10 01:52:43 +0800</tspan>
<tspan x="10" y="1562">- add function idIntegerCreate, idStringCreate</tspan>
<tspan x="10" y="1578"></tspan>
<tspan x="10" y="1594">2016-10-10 00:40:25 +0800</tspan>
<tspan x="10" y="1610">- add eval button to demo</tspan>
<tspan x="10" y="1626">- remove customUtils dependency</tspan>
<tspan x="10" y="1642"></tspan>
<tspan x="10" y="1658">2016-10-02 11:58:01 +0800</tspan>
<tspan x="10" y="1674">- npm publish 2016.9.1</tspan>
<tspan x="10" y="1690">- make db always persistent</tspan>
<tspan x="10" y="1706">- removed support for native-datetime (automatically converted to iso-string)</tspan>
<tspan x="10" y="1722">- tables automatically includes createdAt and updatedAt fields</tspan>
<tspan x="10" y="1738">- remove async dependency</tspan>
<tspan x="10" y="1754">- remove localForage dependency</tspan>
<tspan x="10" y="1770">- remove underscore dependency</tspan>
<tspan x="10" y="1786">- remove util dependency</tspan>
<tspan x="10" y="1802"></tspan>
<tspan x="10" y="1818">2016-08-26 09:00:11 +0800</tspan>
<tspan x="10" y="1834">- npm publish 2016.8.3</tspan>
<tspan x="10" y="1850">- fix npm-test for published package</tspan>
<tspan x="10" y="1866"></tspan>
<tspan x="10" y="1882">2016-08-25 21:34:33 +0800</tspan>
<tspan x="10" y="1898">- npm publish 2016.8.2</tspan>
<tspan x="10" y="1914">- disable test on published package in build</tspan>
<tspan x="10" y="1930"></tspan>
<tspan x="10" y="1946">2016-08-25 21:10:59 +0800</tspan>
<tspan x="10" y="1962">- npm publish 2016.8.1</tspan>
<tspan x="10" y="1978">- deploy live test-server to github and heroku</tspan>
<tspan x="10" y="1994">- add functions Nedb.dbExport, Nedb.dbImport, Nedb.dbReset, Nedb.dbTableCreate, Nedb.dbTableDrop</tspan>
<tspan x="10" y="2010">- rename nedb-lite.js to index.js</tspan>
<tspan x="10" y="2026"></tspan>
<tspan x="10" y="2042">2016-06-12 03:35:05 +0300</tspan>
<tspan x="10" y="2058">- npm publish 2016.5.1</tspan>
<tspan x="10" y="2074">- add rollup compatibility</tspan>
<tspan x="10" y="2090"></tspan>
<tspan x="10" y="2106">2016-05-12 20:47:05 +0300</tspan>
<tspan x="10" y="2122">- npm publish 2016.4.2</tspan>
<tspan x="10" y="2138">- expose and document nedb's internal modules</tspan>
<tspan x="10" y="2154"></tspan>
<tspan x="10" y="2170">2016-03-19 16:53:29 +0800</tspan>
<tspan x="10" y="2186">- npm publish 2016.1.3</tspan>
<tspan x="10" y="2202">- add function Nedb.fileReset</tspan>
<tspan x="10" y="2218">- add property Nedb.fileDict, Nedb.storage</tspan>
<tspan x="10" y="2234"></tspan>
<tspan x="10" y="2250">2016-03-01 03:15:28 +0800</tspan>
<tspan x="10" y="2266">- npm publish 2016.1.2</tspan>
<tspan x="10" y="2282">- add cdn file-download link</tspan>
<tspan x="10" y="2298">- add nodejs win32 support</tspan>
<tspan x="10" y="2314">- add simple github test-server</tspan>
<tspan x="10" y="2330">- rename index.js to nedb-lite.js</tspan>
<tspan x="10" y="2346"></tspan>
<tspan x="10" y="2362">2016-02-29 17:04:33 +0800</tspan>
<tspan x="10" y="2378">- npm publish 2016.1.1</tspan>
<tspan x="10" y="2394"></tspan>
<tspan x="10" y="2410">2014-03-26 02:31:50 +0700</tspan>
<tspan x="10" y="2426">add blank README.md</tspan>
</text>
</svg>
