<svg height="2446" width="720" xmlns="http://www.w3.org/2000/svg">
<rect height="2446" fill="#555" width="720"></rect>
<text fill="#7f7" font-family="Courier New" font-size="12" xml:space="preserve">
<tspan x="10" y="26">2016-10-13 21:45:24 +0800</tspan>
<tspan x="10" y="42">cull _DbIndex.prototype.getBetweenBounds</tspan>
<tspan x="10" y="58"></tspan>
<tspan x="10" y="74">2016-10-13 21:38:29 +0800</tspan>
<tspan x="10" y="90">cull index update</tspan>
<tspan x="10" y="106"></tspan>
<tspan x="10" y="122">2016-10-13 21:30:49 +0800</tspan>
<tspan x="10" y="138">fix dbTableDrop</tspan>
<tspan x="10" y="154"></tspan>
<tspan x="10" y="170">2016-10-13 21:19:40 +0800</tspan>
<tspan x="10" y="186">rename candidates to dbRowList</tspan>
<tspan x="10" y="202"></tspan>
<tspan x="10" y="218">2016-10-13 21:17:15 +0800</tspan>
<tspan x="10" y="234">cull updateIndexes</tspan>
<tspan x="10" y="250"></tspan>
<tspan x="10" y="266">2016-10-13 21:10:39 +0800</tspan>
<tspan x="10" y="282">rename dbIndexFindMany</tspan>
<tspan x="10" y="298"></tspan>
<tspan x="10" y="314">2016-10-13 21:03:15 +0800</tspan>
<tspan x="10" y="330">cull removeFromIndexes</tspan>
<tspan x="10" y="346"></tspan>
<tspan x="10" y="362">2016-10-13 20:58:59 +0800</tspan>
<tspan x="10" y="378">fix npm test</tspan>
<tspan x="10" y="394"></tspan>
<tspan x="10" y="410">2016-10-13 20:57:34 +0800</tspan>
<tspan x="10" y="426">cull addToIndexes</tspan>
<tspan x="10" y="442"></tspan>
<tspan x="10" y="458">2016-10-13 20:54:45 +0800</tspan>
<tspan x="10" y="474">fix npm test</tspan>
<tspan x="10" y="490"></tspan>
<tspan x="10" y="506">2016-10-13 20:53:11 +0800</tspan>
<tspan x="10" y="522">cull _insertMultipleDocsInCach</tspan>
<tspan x="10" y="538"></tspan>
<tspan x="10" y="554">2016-10-13 20:52:02 +0800</tspan>
<tspan x="10" y="570">fix npm test</tspan>
<tspan x="10" y="586"></tspan>
<tspan x="10" y="602">2016-10-13 20:47:13 +0800</tspan>
<tspan x="10" y="618">slushy</tspan>
<tspan x="10" y="634"></tspan>
<tspan x="10" y="650">2016-10-13 20:42:48 +0800</tspan>
<tspan x="10" y="666">cull prepareDocumentForInsertion</tspan>
<tspan x="10" y="682"></tspan>
<tspan x="10" y="698">2016-10-13 20:33:54 +0800</tspan>
<tspan x="10" y="714">cull modify</tspan>
<tspan x="10" y="730"></tspan>
<tspan x="10" y="746">2016-10-13 20:20:11 +0800</tspan>
<tspan x="10" y="762">rename crudInsertMany</tspan>
<tspan x="10" y="778"></tspan>
<tspan x="10" y="794">2016-10-13 19:54:33 +0800</tspan>
<tspan x="10" y="810">rename _DbIndex</tspan>
<tspan x="10" y="826"></tspan>
<tspan x="10" y="842">2016-10-13 18:58:30 +0800</tspan>
<tspan x="10" y="858">improve test-coverage</tspan>
<tspan x="10" y="874"></tspan>
<tspan x="10" y="890">2016-10-13 18:54:02 +0800</tspan>
<tspan x="10" y="906">improve test-coverage</tspan>
<tspan x="10" y="922"></tspan>
<tspan x="10" y="938">2016-10-13 18:46:17 +0800</tspan>
<tspan x="10" y="954">rename dbTableSave</tspan>
<tspan x="10" y="970"></tspan>
<tspan x="10" y="986">2016-10-13 18:43:18 +0800</tspan>
<tspan x="10" y="1002">rename dbTableExport</tspan>
<tspan x="10" y="1018"></tspan>
<tspan x="10" y="1034">2016-10-13 18:34:18 +0800</tspan>
<tspan x="10" y="1050">rename crudRemoveMany</tspan>
<tspan x="10" y="1066"></tspan>
<tspan x="10" y="1082">2016-10-13 18:28:11 +0800</tspan>
<tspan x="10" y="1098">rename crudFindOne</tspan>
<tspan x="10" y="1114"></tspan>
<tspan x="10" y="1130">2016-10-13 18:18:59 +0800</tspan>
<tspan x="10" y="1146">rename crudGetAllSync</tspan>
<tspan x="10" y="1162"></tspan>
<tspan x="10" y="1178">2016-10-13 18:12:08 +0800</tspan>
<tspan x="10" y="1194">rename _DBTable</tspan>
<tspan x="10" y="1210"></tspan>
<tspan x="10" y="1226">2016-10-13 18:10:30 +0800</tspan>
<tspan x="10" y="1242">rename crudInsert</tspan>
<tspan x="10" y="1258"></tspan>
<tspan x="10" y="1274">2016-10-13 18:04:53 +0800</tspan>
<tspan x="10" y="1290">update timerSave</tspan>
<tspan x="10" y="1306"></tspan>
<tspan x="10" y="1322">2016-10-13 17:51:38 +0800</tspan>
<tspan x="10" y="1338">rename crudUpdate</tspan>
<tspan x="10" y="1354"></tspan>
<tspan x="10" y="1370">2016-10-13 17:48:48 +0800</tspan>
<tspan x="10" y="1386">rename crudInsert</tspan>
<tspan x="10" y="1402"></tspan>
<tspan x="10" y="1418">2016-10-13 17:42:57 +0800</tspan>
<tspan x="10" y="1434">cull persistence</tspan>
<tspan x="10" y="1450"></tspan>
<tspan x="10" y="1466">2016-10-13 17:23:16 +0800</tspan>
<tspan x="10" y="1482">cull persistence</tspan>
<tspan x="10" y="1498"></tspan>
<tspan x="10" y="1514">2016-10-13 16:47:45 +0800</tspan>
<tspan x="10" y="1530">cull persistence</tspan>
<tspan x="10" y="1546"></tspan>
<tspan x="10" y="1562">2016-10-13 16:29:31 +0800</tspan>
<tspan x="10" y="1578">fix index</tspan>
<tspan x="10" y="1594"></tspan>
<tspan x="10" y="1610">2016-10-13 16:01:18 +0800</tspan>
<tspan x="10" y="1626">simplify table-drop</tspan>
<tspan x="10" y="1642"></tspan>
<tspan x="10" y="1658">2016-10-13 15:44:38 +0800</tspan>
<tspan x="10" y="1674">cull persistCachedDatabase</tspan>
<tspan x="10" y="1690"></tspan>
<tspan x="10" y="1706">2016-10-13 15:37:50 +0800</tspan>
<tspan x="10" y="1722">cull treatRawData</tspan>
<tspan x="10" y="1738"></tspan>
<tspan x="10" y="1754">2016-10-13 15:10:17 +0800</tspan>
<tspan x="10" y="1770">methodize dbTableExport</tspan>
<tspan x="10" y="1786"></tspan>
<tspan x="10" y="1802">2016-10-13 12:48:16 +0800</tspan>
<tspan x="10" y="1818">methodize dbTableDrop</tspan>
<tspan x="10" y="1834"></tspan>
<tspan x="10" y="1850">2016-10-13 12:43:49 +0800</tspan>
<tspan x="10" y="1866">methodize dbTableDrop</tspan>
<tspan x="10" y="1882"></tspan>
<tspan x="10" y="1898">2016-10-13 12:40:47 +0800</tspan>
<tspan x="10" y="1914">slushy drop</tspan>
<tspan x="10" y="1930"></tspan>
<tspan x="10" y="1946">2016-10-13 11:48:48 +0800</tspan>
<tspan x="10" y="1962">cull self.isLoaded</tspan>
<tspan x="10" y="1978"></tspan>
<tspan x="10" y="1994">2016-10-13 11:38:02 +0800</tspan>
<tspan x="10" y="2010">remove table lock</tspan>
<tspan x="10" y="2026"></tspan>
<tspan x="10" y="2042">2016-10-13 09:29:08 +0800</tspan>
<tspan x="10" y="2058">allowing dropped tables to be re-used</tspan>
<tspan x="10" y="2074"></tspan>
<tspan x="10" y="2090">2016-10-13 09:20:14 +0800</tspan>
<tspan x="10" y="2106">move code from _Table to dbTableCreate</tspan>
<tspan x="10" y="2122"></tspan>
<tspan x="10" y="2138">2016-10-13 08:32:53 +0800</tspan>
<tspan x="10" y="2154">- add lock to dbReset</tspan>
<tspan x="10" y="2170"></tspan>
<tspan x="10" y="2186">2016-10-12 23:32:10 +0800</tspan>
<tspan x="10" y="2202">- add 'hide internal test' button to demo</tspan>
<tspan x="10" y="2218"></tspan>
<tspan x="10" y="2234">2016-10-12 22:54:29 +0800</tspan>
<tspan x="10" y="2250">- add lock to dbReset</tspan>
<tspan x="10" y="2266"></tspan>
<tspan x="10" y="2282">2016-10-12 22:38:36 +0800</tspan>
<tspan x="10" y="2298">- rename window.nedb to window.nedb_lite</tspan>
<tspan x="10" y="2314">- deprecate class constructor Nedb in favor of dbTableCreate</tspan>
<tspan x="10" y="2330"></tspan>
<tspan x="10" y="2346">2016-10-11 15:44:57 +0800</tspan>
<tspan x="10" y="2362">- insert will auto-create missing non-sparse unique-keys</tspan>
<tspan x="10" y="2378">- add isInteger parameter to indexes</tspan>
<tspan x="10" y="2394"></tspan>
<tspan x="10" y="2410">2016-10-10 23:06:21 +0800</tspan>
<tspan x="10" y="2426">- jslint entire code</tspan>
</text>
</svg>
