<svg height="814" width="720" xmlns="http://www.w3.org/2000/svg">
<rect height="814" fill="#555" width="720"></rect>
<text fill="#7f7" font-family="Courier New" font-size="12" xml:space="preserve">
<tspan x="10" y="26">2016-10-02 11:58:01 +0800</tspan>
<tspan x="10" y="42">- npm publish 2016.9.1</tspan>
<tspan x="10" y="58">- make db always persistent</tspan>
<tspan x="10" y="74">- removed support for native-datetime (automatically converted to iso-string)</tspan>
<tspan x="10" y="90">- tables automatically includes createdAt and updatedAt fields</tspan>
<tspan x="10" y="106">- remove async dependency</tspan>
<tspan x="10" y="122">- remove localForage dependency</tspan>
<tspan x="10" y="138">- remove underscore dependency</tspan>
<tspan x="10" y="154">- remove util dependency</tspan>
<tspan x="10" y="170"></tspan>
<tspan x="10" y="186">2016-08-26 09:00:11 +0800</tspan>
<tspan x="10" y="202">- npm publish 2016.8.3</tspan>
<tspan x="10" y="218">- fix npm-test for published package</tspan>
<tspan x="10" y="234"></tspan>
<tspan x="10" y="250">2016-08-25 21:34:33 +0800</tspan>
<tspan x="10" y="266">- npm publish 2016.8.2</tspan>
<tspan x="10" y="282">- disable test on published package in build</tspan>
<tspan x="10" y="298"></tspan>
<tspan x="10" y="314">2016-08-25 21:10:59 +0800</tspan>
<tspan x="10" y="330">- npm publish 2016.8.1</tspan>
<tspan x="10" y="346">- deploy live test-server to github and heroku</tspan>
<tspan x="10" y="362">- add functions Nedb.dbExport, Nedb.dbImport, Nedb.dbReset, Nedb.dbTableCreate, Nedb.dbTableDrop</tspan>
<tspan x="10" y="378">- rename nedb-lite.js to index.js</tspan>
<tspan x="10" y="394"></tspan>
<tspan x="10" y="410">2016-06-12 03:35:05 +0300</tspan>
<tspan x="10" y="426">- npm publish 2016.5.1</tspan>
<tspan x="10" y="442">- add rollup compatibility</tspan>
<tspan x="10" y="458"></tspan>
<tspan x="10" y="474">2016-05-12 20:47:05 +0300</tspan>
<tspan x="10" y="490">- npm publish 2016.4.2</tspan>
<tspan x="10" y="506">- expose and document nedb's internal modules</tspan>
<tspan x="10" y="522"></tspan>
<tspan x="10" y="538">2016-03-19 16:53:29 +0800</tspan>
<tspan x="10" y="554">- npm publish 2016.1.3</tspan>
<tspan x="10" y="570">- add function Nedb.fileReset</tspan>
<tspan x="10" y="586">- add property Nedb.fileDict, Nedb.storage</tspan>
<tspan x="10" y="602"></tspan>
<tspan x="10" y="618">2016-03-01 03:15:28 +0800</tspan>
<tspan x="10" y="634">- npm publish 2016.1.2</tspan>
<tspan x="10" y="650">- add cdn file-download link</tspan>
<tspan x="10" y="666">- add nodejs win32 support</tspan>
<tspan x="10" y="682">- add simple github test-server</tspan>
<tspan x="10" y="698">- rename index.js to nedb-lite.js</tspan>
<tspan x="10" y="714"></tspan>
<tspan x="10" y="730">2016-02-29 17:04:33 +0800</tspan>
<tspan x="10" y="746">- npm publish 2016.1.1</tspan>
<tspan x="10" y="762"></tspan>
<tspan x="10" y="778">2014-03-26 02:31:50 +0700</tspan>
<tspan x="10" y="794">add blank README.md</tspan>
</text>
</svg>
