<svg height="734" width="720" xmlns="http://www.w3.org/2000/svg">
<rect height="734" fill="#555" width="720"></rect>
<text fill="#7f7" font-family="Courier New" font-size="12" xml:space="preserve">
<tspan x="10" y="26"></tspan>
<tspan x="10" y="42">[MODE_BUILD=testExampleJs] - 2016-10-13T01:22:30Z - testing example.js</tspan>
<tspan x="10" y="58"></tspan>
<tspan x="10" y="74">npm install "kaizhu256/node-nedb-lite#alpha" &amp;&amp; export PORT=8081 &amp;&amp; node example.js</tspan>
<tspan x="10" y="90"></tspan>
<tspan x="10" y="106">/tmp/app</tspan>
<tspan x="10" y="122">└── nedb-lite@2016.9.2  (git://github.com/kaizhu256/node-nedb-lite.git#6e7c9f1a6cb02a8fbd05ebb8f\</tspan>
<tspan x="10" y="138">a0106f1b40ab4ed)</tspan>
<tspan x="10" y="154"></tspan>
<tspan x="10" y="170">npm WARN enoent ENOENT: no such file or directory, open '/tmp/app/package.json'</tspan>
<tspan x="10" y="186">npm WARN app No description</tspan>
<tspan x="10" y="202">npm WARN app No repository field.</tspan>
<tspan x="10" y="218">npm WARN app No README data</tspan>
<tspan x="10" y="234">npm WARN app No license field.</tspan>
<tspan x="10" y="250">server starting on port 8081</tspan>
<tspan x="10" y="266"></tspan>
<tspan x="10" y="282">[MODE_BUILD=testExampleJs] - 2016-10-13T01:22:40Z - electron.screenCapture - http://localhost:80\</tspan>
<tspan x="10" y="298">81</tspan>
<tspan x="10" y="314"></tspan>
<tspan x="10" y="330"></tspan>
<tspan x="10" y="346">browserTest - created electron entry-page /home/travis/build/kaizhu256/node-nedb-lite/tmp/electr\</tspan>
<tspan x="10" y="362">on.157bba25-6ff0-4027-8188-0113a967f92c.html</tspan>
<tspan x="10" y="378"></tspan>
<tspan x="10" y="394">[3365:1013/012241:ERROR:browser_main_loop.cc(231)] Running without the SUID sandbox! See https:/\</tspan>
<tspan x="10" y="410">/chromium.googlesource.com/chromium/src/+/master/docs/linux_suid_sandbox_development.md for more\</tspan>
<tspan x="10" y="426"> information on developing with the sandbox on.</tspan>
<tspan x="10" y="442">Xlib:  extension "RANDR" missing on display ":99.0".</tspan>
<tspan x="10" y="458">[3365:1013/012241:ERROR:bus.cc(432)] Failed to connect to the bus: Failed to connect to socket /\</tspan>
<tspan x="10" y="474">var/run/dbus/system_bus_socket: Connection refused</tspan>
<tspan x="10" y="490">Xlib:  extension "RANDR" missing on display ":99.0".</tspan>
<tspan x="10" y="506">[3365:1013/012241:WARNING:audio_manager.cc(314)] Multiple instances of AudioManager detected</tspan>
<tspan x="10" y="522">[3365:1013/012241:WARNING:audio_manager.cc(275)] Multiple instances of AudioManager detected</tspan>
<tspan x="10" y="538">[3404:1013/012241:ERROR:sandbox_linux.cc(343)] InitializeSandbox() called with multiple threads \</tspan>
<tspan x="10" y="554">in process gpu-process. </tspan>
<tspan x="10" y="570">[3365:1013/012241:ERROR:browser_gpu_channel_host_factory.cc(131)] Failed to create channel.</tspan>
<tspan x="10" y="586"></tspan>
<tspan x="10" y="602">browserTest - opened url http://localhost:8081</tspan>
<tspan x="10" y="618"></tspan>
<tspan x="10" y="634"></tspan>
<tspan x="10" y="650">browserTest - created screen-capture file:///home/travis/build/kaizhu256/node-nedb-lite/tmp/buil\</tspan>
<tspan x="10" y="666">d/screen-capture.testExampleJs.browser..png</tspan>
<tspan x="10" y="682"></tspan>
<tspan x="10" y="698"></tspan>
<tspan x="10" y="714">browserTest - exit-code 0 - http://localhost:8081</tspan>
</text>
</svg>
