<svg height="1438" width="720" xmlns="http://www.w3.org/2000/svg">
<rect height="1438" fill="#555" width="720"></rect>
<text fill="#7f7" font-family="Courier New" font-size="12" xml:space="preserve">
<tspan x="10" y="26">2016-10-13 01:01:01 +0800</tspan>
<tspan x="10" y="42">- add 'hide internal test' button to demo</tspan>
<tspan x="10" y="58"></tspan>
<tspan x="10" y="74">2016-10-13 00:22:24 +0800</tspan>
<tspan x="10" y="90">- add 'hide internal test' button to demo</tspan>
<tspan x="10" y="106"></tspan>
<tspan x="10" y="122">2016-10-13 00:04:55 +0800</tspan>
<tspan x="10" y="138">- add 'hide internal test' button to demo</tspan>
<tspan x="10" y="154"></tspan>
<tspan x="10" y="170">2016-10-12 23:32:10 +0800</tspan>
<tspan x="10" y="186">- add 'hide internal test' button to demo</tspan>
<tspan x="10" y="202"></tspan>
<tspan x="10" y="218">2016-10-12 22:54:29 +0800</tspan>
<tspan x="10" y="234">- add lock to dbReset</tspan>
<tspan x="10" y="250"></tspan>
<tspan x="10" y="266">2016-10-12 22:38:36 +0800</tspan>
<tspan x="10" y="282">- rename window.nedb to window.nedb_lite</tspan>
<tspan x="10" y="298">- deprecate class constructor Nedb in favor of dbTableCreate</tspan>
<tspan x="10" y="314"></tspan>
<tspan x="10" y="330">2016-10-11 15:44:57 +0800</tspan>
<tspan x="10" y="346">- insert will auto-create missing non-sparse unique-keys</tspan>
<tspan x="10" y="362">- add isInteger parameter to indexes</tspan>
<tspan x="10" y="378"></tspan>
<tspan x="10" y="394">2016-10-10 23:06:21 +0800</tspan>
<tspan x="10" y="410">- jslint entire code</tspan>
<tspan x="10" y="426"></tspan>
<tspan x="10" y="442">2016-10-10 02:48:19 +0800</tspan>
<tspan x="10" y="458">- remove support for datetime (use ISO datetime string instead)</tspan>
<tspan x="10" y="474"></tspan>
<tspan x="10" y="490">2016-10-10 02:21:32 +0800</tspan>
<tspan x="10" y="506">- row-update always returns updated row</tspan>
<tspan x="10" y="522"></tspan>
<tspan x="10" y="538">2016-10-10 01:52:43 +0800</tspan>
<tspan x="10" y="554">- add function idIntegerCreate, idStringCreate</tspan>
<tspan x="10" y="570"></tspan>
<tspan x="10" y="586">2016-10-10 00:40:25 +0800</tspan>
<tspan x="10" y="602">- add eval button to demo</tspan>
<tspan x="10" y="618">- remove customUtils dependency</tspan>
<tspan x="10" y="634"></tspan>
<tspan x="10" y="650">2016-10-02 11:58:01 +0800</tspan>
<tspan x="10" y="666">- npm publish 2016.9.1</tspan>
<tspan x="10" y="682">- make db always persistent</tspan>
<tspan x="10" y="698">- removed support for native-datetime (automatically converted to iso-string)</tspan>
<tspan x="10" y="714">- tables automatically includes createdAt and updatedAt fields</tspan>
<tspan x="10" y="730">- remove async dependency</tspan>
<tspan x="10" y="746">- remove localForage dependency</tspan>
<tspan x="10" y="762">- remove underscore dependency</tspan>
<tspan x="10" y="778">- remove util dependency</tspan>
<tspan x="10" y="794"></tspan>
<tspan x="10" y="810">2016-08-26 09:00:11 +0800</tspan>
<tspan x="10" y="826">- npm publish 2016.8.3</tspan>
<tspan x="10" y="842">- fix npm-test for published package</tspan>
<tspan x="10" y="858"></tspan>
<tspan x="10" y="874">2016-08-25 21:34:33 +0800</tspan>
<tspan x="10" y="890">- npm publish 2016.8.2</tspan>
<tspan x="10" y="906">- disable test on published package in build</tspan>
<tspan x="10" y="922"></tspan>
<tspan x="10" y="938">2016-08-25 21:10:59 +0800</tspan>
<tspan x="10" y="954">- npm publish 2016.8.1</tspan>
<tspan x="10" y="970">- deploy live test-server to github and heroku</tspan>
<tspan x="10" y="986">- add functions Nedb.dbExport, Nedb.dbImport, Nedb.dbReset, Nedb.dbTableCreate, Nedb.dbTableDrop</tspan>
<tspan x="10" y="1002">- rename nedb-lite.js to index.js</tspan>
<tspan x="10" y="1018"></tspan>
<tspan x="10" y="1034">2016-06-12 03:35:05 +0300</tspan>
<tspan x="10" y="1050">- npm publish 2016.5.1</tspan>
<tspan x="10" y="1066">- add rollup compatibility</tspan>
<tspan x="10" y="1082"></tspan>
<tspan x="10" y="1098">2016-05-12 20:47:05 +0300</tspan>
<tspan x="10" y="1114">- npm publish 2016.4.2</tspan>
<tspan x="10" y="1130">- expose and document nedb's internal modules</tspan>
<tspan x="10" y="1146"></tspan>
<tspan x="10" y="1162">2016-03-19 16:53:29 +0800</tspan>
<tspan x="10" y="1178">- npm publish 2016.1.3</tspan>
<tspan x="10" y="1194">- add function Nedb.fileReset</tspan>
<tspan x="10" y="1210">- add property Nedb.fileDict, Nedb.storage</tspan>
<tspan x="10" y="1226"></tspan>
<tspan x="10" y="1242">2016-03-01 03:15:28 +0800</tspan>
<tspan x="10" y="1258">- npm publish 2016.1.2</tspan>
<tspan x="10" y="1274">- add cdn file-download link</tspan>
<tspan x="10" y="1290">- add nodejs win32 support</tspan>
<tspan x="10" y="1306">- add simple github test-server</tspan>
<tspan x="10" y="1322">- rename index.js to nedb-lite.js</tspan>
<tspan x="10" y="1338"></tspan>
<tspan x="10" y="1354">2016-02-29 17:04:33 +0800</tspan>
<tspan x="10" y="1370">- npm publish 2016.1.1</tspan>
<tspan x="10" y="1386"></tspan>
<tspan x="10" y="1402">2014-03-26 02:31:50 +0700</tspan>
<tspan x="10" y="1418">add blank README.md</tspan>
</text>
</svg>
